<svg width="42" height="42" viewBox="0 0 42 42" fill="none" xmlns="http://www.w3.org/2000/svg">
<path d="M21 0.65625C9.76106 0.65625 0.65625 9.76237 0.65625 21C0.65625 32.2376 9.76237 41.3438 21 41.3438C32.2389 41.3438 41.3438 32.2376 41.3438 21C41.3438 9.76237 32.2376 0.65625 21 0.65625ZM30.9921 14.5937L27.6531 30.3279C27.4063 31.4436 26.7422 31.7139 25.8156 31.1889L20.7296 27.4404L18.2766 29.8029C18.0062 30.0733 17.7765 30.303 17.2515 30.303L17.6124 25.1265L27.0375 16.611C27.4483 16.2501 26.9469 16.0453 26.4049 16.4062L14.7564 23.7392L9.73612 22.1721C8.64544 21.8282 8.6205 21.0814 9.96581 20.5564L29.5798 12.9924C30.4907 12.6643 31.2874 13.2156 30.9921 14.5937Z" fill="#EAE2E2"/>
</svg>
