<svg width="42" height="42" viewBox="0 0 42 42" fill="none" xmlns="http://www.w3.org/2000/svg">
<path fill-rule="evenodd" clip-rule="evenodd" d="M21 41.3438C32.2355 41.3438 41.3438 32.2355 41.3438 21C41.3438 9.76446 32.2355 0.65625 21 0.65625C9.76446 0.65625 0.65625 9.76446 0.65625 21C0.65625 32.2355 9.76446 41.3438 21 41.3438ZM24.3582 22.1795C24.6501 22.2883 26.2121 23.0505 26.5328 23.2129L26.5464 23.1337C26.5773 23.1473 26.607 23.1603 26.6358 23.1729C26.9059 23.2911 27.0827 23.3684 27.1543 23.5C27.2335 23.6416 27.2335 24.2662 26.9623 25.0204C26.6952 25.7698 25.4203 26.4409 24.8125 26.5408C24.263 26.62 23.5672 26.6536 22.805 26.4121C22.7457 26.3918 22.6844 26.3709 22.6208 26.3494C22.1882 26.2024 21.6532 26.0207 20.9886 25.741C18.0366 24.4708 16.0342 21.6435 15.6184 21.0564C15.5842 21.008 15.5607 20.9748 15.5483 20.959C15.5402 20.9475 15.5296 20.9327 15.5166 20.9147C15.2763 20.5805 14.2486 19.1512 14.2486 17.6766C14.2486 16.234 14.9629 15.4704 15.2972 15.1129C15.3221 15.0863 15.3449 15.0619 15.3652 15.0397C15.6571 14.7357 16.0034 14.6565 16.2154 14.6565C16.4273 14.6565 16.6401 14.6565 16.8232 14.6733C16.8425 14.6733 16.8625 14.6726 16.8831 14.6718C17.0716 14.6645 17.3106 14.6553 17.5398 15.2148C17.6556 15.4867 17.8415 15.937 18.0212 16.3723C18.2549 16.9384 18.478 17.4791 18.5228 17.5686C18.602 17.727 18.6556 17.9022 18.5516 18.1269C18.525 18.1759 18.5019 18.2205 18.4802 18.2626C18.4096 18.3991 18.3528 18.5089 18.2349 18.6556C18.1938 18.7041 18.1519 18.7545 18.1099 18.805C17.9858 18.9544 17.8605 19.1051 17.7518 19.2138C17.5934 19.3722 17.4271 19.5513 17.6142 19.8681C17.8022 20.1888 18.4348 21.2301 19.385 22.0755C20.3979 22.9839 21.2778 23.3672 21.729 23.5637C21.8197 23.6032 21.8931 23.6352 21.9468 23.6623C22.2627 23.8039 22.4466 23.7879 22.6338 23.5792C22.8209 23.3704 23.4336 22.6546 23.6416 22.3419C23.8543 22.0211 24.0662 22.0755 24.3582 22.1795ZM20.7215 31.0693H20.7383H20.7423C26.5824 31.0693 31.3317 26.3329 31.3397 20.5303C31.3433 19.1436 31.0708 17.7701 30.538 16.4899C30.0052 15.2097 29.2228 14.0484 28.2364 13.0737C26.2369 11.0742 23.5792 9.97049 20.7463 9.97049C14.8981 9.97049 10.1448 14.7069 10.1448 20.5135C10.1448 22.4973 10.7051 24.4408 11.7613 26.1201L12.0196 26.52L10.9447 30.4111L14.9437 29.3698L15.3268 29.5985C16.96 30.5567 18.8299 31.0693 20.7215 31.0693ZM20.7215 7.875C24.1246 7.875 27.3239 9.20348 29.7569 11.5533L29.7409 11.5941C32.1483 13.9895 33.4688 17.1767 33.4688 20.5631C33.4648 27.5614 27.7493 33.252 20.7263 33.252H20.7223C18.5958 33.2468 16.5035 32.7159 14.6318 31.7068L7.875 33.4688L9.68256 26.8992C8.56603 24.9708 7.98297 22.7922 7.98297 20.5591C7.98697 13.5656 13.7024 7.875 20.7215 7.875Z" fill="#EAE2E2"/>
</svg>
