<svg width="60" height="60" viewBox="0 0 60 60" fill="none" xmlns="http://www.w3.org/2000/svg">
<path fill-rule="evenodd" clip-rule="evenodd" d="M30 59.0625C46.0508 59.0625 59.0625 46.0508 59.0625 30C59.0625 13.9492 46.0508 0.9375 30 0.9375C13.9492 0.9375 0.9375 13.9492 0.9375 30C0.9375 46.0508 13.9492 59.0625 30 59.0625ZM34.7974 31.685C35.2144 31.8404 37.4459 32.9293 37.9041 33.1612L37.9235 33.0481C37.9675 33.0675 38.0101 33.0861 38.0511 33.1041C38.4371 33.273 38.6896 33.3834 38.7918 33.5714C38.905 33.7736 38.905 34.666 38.5176 35.7434C38.136 36.814 36.3147 37.7727 35.4464 37.9155C34.6614 38.0286 33.6674 38.0766 32.5785 37.7315C32.4939 37.7025 32.4063 37.6728 32.3154 37.6419C31.6975 37.432 30.9331 37.1724 29.9837 36.7729C25.7666 34.9584 22.9061 30.9193 22.3121 30.0806C22.2631 30.0114 22.2296 29.9641 22.2119 29.9414C22.2003 29.925 22.1851 29.9039 22.1666 29.8782C21.8233 29.4007 20.3552 27.3589 20.3552 25.2523C20.3552 23.1915 21.3756 22.1005 21.8532 21.5898C21.8888 21.5518 21.9213 21.517 21.9502 21.4852C22.3673 21.051 22.862 20.9379 23.1648 20.9379C23.4676 20.9379 23.7715 20.9379 24.0332 20.9619C24.0608 20.9619 24.0893 20.9608 24.1188 20.9597C24.3879 20.9493 24.7294 20.9362 25.0569 21.7354C25.2223 22.1238 25.4878 22.7671 25.7445 23.3889C26.0784 24.1977 26.3972 24.9701 26.4611 25.098C26.5743 25.3243 26.6508 25.5745 26.5023 25.8956C26.4643 25.9656 26.4313 26.0294 26.4002 26.0895C26.2994 26.2844 26.2183 26.4412 26.0498 26.6508C25.9912 26.7202 25.9313 26.7921 25.8713 26.8643C25.694 27.0777 25.5151 27.293 25.3597 27.4483C25.1335 27.6746 24.8958 27.9305 25.1632 28.383C25.4317 28.8411 26.3355 30.3288 27.6928 31.5365C29.1399 32.8342 30.3968 33.3817 31.0415 33.6624C31.171 33.7189 31.2759 33.7645 31.3525 33.8033C31.8038 34.0056 32.0666 33.9827 32.334 33.6845C32.6014 33.3863 33.4766 32.3637 33.7736 31.917C34.0776 31.4588 34.3804 31.5365 34.7974 31.685ZM29.6021 44.3848H29.6261H29.6318C37.9749 44.3848 44.7595 37.6184 44.771 29.329C44.7762 27.3481 44.3869 25.3859 43.6257 23.557C42.8646 21.7281 41.7469 20.0691 40.3378 18.6768C37.4813 15.8203 33.6845 14.2436 29.6375 14.2436C21.283 14.2436 14.4926 21.0099 14.4926 29.305C14.4925 32.1391 15.293 34.9155 16.8018 37.3145L17.1708 37.8858L15.6352 43.4444L21.3481 41.9568L21.8954 42.2836C24.2285 43.6524 26.8999 44.3848 29.6021 44.3848ZM29.6021 11.25C34.4638 11.25 39.0341 13.1478 42.5098 16.5047L42.4869 16.563C45.9261 19.985 47.8125 24.5382 47.8125 29.3759C47.8068 39.3734 39.6419 47.5029 29.6089 47.5029H29.6032C26.5654 47.4954 23.5765 46.7371 20.9025 45.2954L11.25 47.8125L13.8322 38.4274C12.2372 35.6726 11.4042 32.5602 11.4042 29.3701C11.41 19.3794 19.5748 11.25 29.6021 11.25Z" fill="#404040"/>
</svg>
