<svg width="90" height="115" viewBox="0 0 90 115" fill="none" xmlns="http://www.w3.org/2000/svg">
<path fill-rule="evenodd" clip-rule="evenodd" d="M21.8691 67.5532C20.3945 68.0288 18.8134 67.2188 18.3379 65.7442C14.6328 54.2086 15.5462 42.2946 20.0532 32.0031C22.4733 30.4683 25.1862 29.3538 28.0892 28.7621C21.7275 38.9238 19.7242 51.7173 23.678 64.0223C24.1535 65.4967 23.3438 67.0777 21.8691 67.5532ZM35.182 28.382C25.5292 40.4941 24.3511 57.929 33.4534 71.4638C34.5741 73.1314 35.4423 74.7034 36.0981 76.182C38.0103 75.9295 39.8517 75.4525 41.5948 74.7783C40.7628 72.7119 39.62 70.5577 38.1189 68.3262L38.1157 68.3212C29.8846 56.0744 31.5983 40.0581 41.3865 29.8094C39.4271 29.0725 37.3462 28.5839 35.182 28.382ZM46.6616 32.5859C37.8815 40.9297 36.001 54.5227 42.6792 65.0455C44.1703 67.6009 45.4668 69.9577 46.5797 72.1381C48.1718 71.0379 49.6247 69.7506 50.9067 68.3082C49.8953 66.3762 48.7695 64.3514 47.5296 62.2255C42.0984 53.8428 43.6542 42.8818 50.8686 36.3162C49.618 34.9158 48.2059 33.6626 46.6616 32.5859ZM54.3928 41.4773C49.7162 45.9321 48.6036 53.1898 52.103 58.9292C52.9134 60.1342 53.8009 61.3024 54.7584 62.4358C55.712 60.3778 56.3832 58.1622 56.7224 55.8388C56.7164 55.8299 56.7104 55.8209 56.7044 55.812C54.8624 53.0722 54.8453 49.6405 56.3717 46.9521C55.9323 45.0292 55.2625 43.1941 54.3928 41.4773ZM27.7774 75.8393C27.5493 75.4664 27.3309 75.0872 27.1224 74.7021C26.6469 73.2275 25.0658 72.4175 23.5911 72.893C23.017 73.0782 22.5437 73.4309 22.2077 73.8796C23.9542 74.7496 25.8214 75.4134 27.7774 75.8393Z" fill="#EAE2E2"/>
<path fill-rule="evenodd" clip-rule="evenodd" d="M55.3741 6.50096C55.1869 6.5617 54.9909 6.59099 54.7941 6.58732C54.1569 6.57443 53.5321 6.5495 52.9166 6.52494L52.5878 6.51189C46.838 6.16213 41.0803 7.04966 35.7029 9.11497C27.5945 11.7299 26.0685 13.2551 23.9621 15.363C23.444 15.8845 22.8931 16.4314 22.2382 17.0379C21.5056 17.6913 20.3818 17.6271 19.7283 16.8943C19.0748 16.1616 19.139 15.0378 19.8719 14.3843C20.465 13.8481 20.9589 13.3546 21.4272 12.8867L21.4272 12.8867L21.4654 12.8485C23.8146 10.4871 25.6841 8.61596 34.6135 5.7363C40.3924 3.54184 46.5708 2.59681 52.7416 2.96359L52.9312 2.97163C53.5641 2.99859 54.2 3.02566 54.8582 3.02704C55.8385 3.02563 56.6343 3.81924 56.6357 4.79945C56.6365 5.5828 56.124 6.27434 55.3741 6.50096ZM64.7807 17.488C65.2501 17.8949 65.8981 18.0269 66.4894 17.8358C66.797 17.7363 67.0714 17.5544 67.2833 17.31C67.9255 16.5695 67.8458 15.4484 67.1051 14.8063C63.5553 11.7326 51.0228 7.90422 36.7926 12.4934C21.6602 17.3734 16.0968 27.8918 15.2305 31.5318C15.219 31.5732 15.2089 31.6151 15.2005 31.6573C15.0078 32.6185 15.631 33.5538 16.5921 33.7464C17.5532 33.939 18.4885 33.3159 18.6811 32.3548C19.3706 29.4618 24.368 20.23 37.8819 15.8719C50.8689 11.6837 62.2338 15.2807 64.7807 17.488ZM25.768 29.3578C29.3809 24.5159 34.4769 20.708 40.6606 18.7058C56.2491 13.6786 64.7305 20.8835 70.922 26.1452L70.9409 26.1613C73.8544 28.6327 76.3713 30.7676 78.6991 30.7725C79.6793 30.7641 80.4808 31.5518 80.4894 32.532C80.4979 33.5122 79.71 34.3137 78.7298 34.3222C78.7169 34.3224 78.7041 34.3223 78.6913 34.3221C75.0581 34.3158 72.0789 31.7844 68.6286 28.8529L68.6234 28.8485L68.6211 28.8465C62.7552 23.8646 55.4551 17.6647 41.7502 22.0844C37.7228 23.3879 34.2182 25.5597 31.3768 28.3257C29.4357 28.4485 27.5571 28.8015 25.768 29.3578ZM29.1197 76.0917C29.0938 76.3327 29.117 76.5814 29.1944 76.8227C29.4935 77.7562 30.4928 78.2704 31.4263 77.9713C31.6008 77.9162 31.7656 77.834 31.9148 77.728C32.4741 77.3332 33.0132 76.8838 33.5183 76.3828C33.3193 76.3877 33.1196 76.3901 32.9193 76.3901C31.6264 76.3901 30.3574 76.2881 29.1197 76.0917ZM41.4655 29.8393C39.9227 29.2528 38.3039 28.8205 36.628 28.5611C36.7633 28.466 36.8998 28.372 37.0377 28.2793L37.0534 28.2688C47.4245 21.3879 61.3765 23.9111 68.681 33.9883C69.7772 34.5076 77.0806 37.4114 82.0595 39.3417C82.9622 39.7237 83.3842 40.7653 83.0023 41.6681C82.6365 42.5323 81.6613 42.9623 80.7766 42.6499C67.0929 37.3463 66.5151 36.8448 66.2451 36.6105L66.2439 36.6094C66.1364 36.515 66.0405 36.4082 65.9585 36.2911C60.3856 28.3565 49.9778 25.7833 41.4655 29.8393ZM41.8432 74.6806C41.0227 76.5514 39.4608 78.0435 37.344 79.539C36.7124 79.9866 36.4436 80.7918 36.6799 81.529C36.979 82.4625 37.9783 82.9767 38.9118 82.6775C39.0768 82.625 39.233 82.5482 39.3754 82.4497C43.4825 79.5538 45.6906 76.4739 46.0086 72.5208C44.7022 73.3696 43.3082 74.095 41.8432 74.6806ZM49.6016 35.0009C48.4353 33.8781 47.1561 32.872 45.7825 32.0012C52.1926 30.2926 59.2524 32.7091 63.1751 38.5089C64.1709 39.9893 67.3307 42.4427 83.0694 48.3256C83.998 48.64 84.4958 49.6476 84.1814 50.576C83.867 51.5045 82.8594 52.0024 81.931 51.6879C81.8967 51.6763 81.8625 51.6635 81.8289 51.6499C64.4446 45.1638 61.6298 42.5768 60.23 40.4918C57.7677 36.8371 53.7042 34.9045 49.6016 35.0009ZM48.5671 70.6061C49.5588 69.7561 50.4805 68.8267 51.3223 67.8279C53.6828 73.6305 53.3847 83.364 48.3464 87.0203C48.1935 87.1241 48.0254 87.2035 47.8479 87.2555C46.9155 87.5581 45.9143 87.0477 45.6117 86.1153C45.3733 85.3808 45.6372 84.5764 46.2643 84.1259C49.3092 81.9229 49.9068 75.2718 48.5671 70.6061ZM54.5155 62.944C55.0379 61.8828 55.4843 60.7776 55.8478 59.6353C62.1652 63.5164 69.9081 66.6019 77.1892 69.3226C78.1074 69.6659 78.5734 70.6886 78.2301 71.6067C78.04 72.1154 77.6273 72.509 77.1102 72.6751L77.1383 72.6699C76.7579 72.7922 76.3475 72.7826 75.9733 72.6427C68.711 69.9282 61.0024 66.8522 54.5155 62.944ZM56.3355 46.7963C55.7108 44.1445 54.6474 41.6621 53.2259 39.4298C54.7953 40.0099 56.2152 41.038 57.2775 42.4736C61.0704 48.1127 76.2559 53.8078 82.0749 55.9901L82.1611 56.0224C83.0897 56.3368 83.5875 57.3443 83.273 58.2727C82.9586 59.2011 81.9511 59.6991 81.0227 59.3847C80.9883 59.373 80.9541 59.3603 80.9206 59.3466C71.4621 55.8138 61.4198 51.6264 56.3355 46.7963ZM56.6916 56.0429C56.8788 54.8339 56.9759 53.5951 56.9759 52.3336C56.9759 52.2043 56.9749 52.0752 56.9728 51.9464C62.6938 56.0641 70.2875 58.7292 75.407 60.524C77.0776 61.0615 78.7168 61.6921 80.3167 62.4131C81.1884 62.8614 81.5318 63.9315 81.0833 64.8033C80.8693 65.2201 80.4991 65.5351 80.0536 65.6798C79.6056 65.8252 79.1181 65.7866 78.6986 65.5722C77.24 64.9318 75.7503 64.3653 74.2348 63.8749L74.2259 63.8718C69.4059 62.1822 62.5117 59.7656 56.6916 56.0429ZM58.9648 87.4002L59.073 87.3653C59.967 87.0789 60.4835 86.1457 60.2512 85.2363C59.3407 81.6843 59.0408 76.1862 60.872 75.5957C63.372 74.7895 65.9197 76.6162 67.9835 78.0959L68.0007 78.1083C68.6871 78.6279 69.4086 79.0994 70.1602 79.5192C71.0189 79.9404 72.0566 79.6057 72.5074 78.7622C72.9694 77.8976 72.6432 76.8221 71.7786 76.3602C71.1864 76.0196 70.6179 75.6398 70.0766 75.2231C67.3412 72.6025 63.4991 71.4818 59.7836 72.2203C54.0401 74.0726 56.297 84.1241 56.8062 86.1194C57.0486 87.0691 58.0151 87.6425 58.9648 87.4002ZM74.5275 25.1352C74.9767 25.7632 75.7801 26.0288 76.5149 25.7923C76.6888 25.7362 76.853 25.6534 77.0014 25.5471C77.7988 24.977 77.9828 23.8683 77.4126 23.071C75.6546 20.8982 73.6974 18.8946 71.5662 17.0864C70.821 16.4491 69.7004 16.5367 69.0632 17.2819C68.4258 18.0271 68.5134 19.1478 69.2586 19.7849C71.1708 21.408 72.934 23.1986 74.5275 25.1352Z" fill="#EAE2E2"/>
<path d="M7.68682 106.568L19.2782 79.5495L20.1199 79.9106L8.52847 106.929L7.68682 106.568ZM10.8555 107.928L22.4471 80.909L23.2333 81.2463L11.6417 108.265L10.8555 107.928ZM5.51204 108.709L7.41464 109.526L8.57821 110.025L11.6916 111.361L11.7178 111.372L11.6667 111.491L5.46116 108.828L5.51204 108.709ZM25.5544 79.0273L25.4869 79.1847L25.1175 79.0262L25.185 78.8689L25.5544 79.0273ZM19.753 76.5385L19.6855 76.6959L19.2812 76.5224L19.3487 76.365L19.753 76.5385ZM33.1305 75.9681C30.9371 75.9681 28.8141 75.6666 26.8007 75.1028L26.9038 74.8624L25.7402 74.3632L22.6354 73.0312L21.4718 72.532L21.3574 72.7988C14.3899 68.7401 9.70697 61.1892 9.70697 52.5446C9.70697 39.6081 20.194 29.1211 33.1305 29.1211C46.0669 29.1211 56.554 39.6081 56.554 52.5446C56.554 65.481 46.0669 75.9681 33.1305 75.9681Z" stroke="#EAE2E2" stroke-width="2.53227"/>
<mask id="mask0" mask-type="alpha" maskUnits="userSpaceOnUse" x="3" y="27" width="55" height="87">
<path d="M7.68682 106.568L19.2782 79.5495L20.1199 79.9106L8.52847 106.929L7.68682 106.568ZM10.8555 107.928L22.4471 80.909L23.2333 81.2463L11.6417 108.265L10.8555 107.928ZM5.51204 108.709L7.41464 109.526L8.57821 110.025L11.6916 111.361L11.7178 111.372L11.6667 111.491L5.46116 108.828L5.51204 108.709ZM25.5544 79.0273L25.4869 79.1847L25.1175 79.0262L25.185 78.8689L25.5544 79.0273ZM19.753 76.5385L19.6855 76.6959L19.2812 76.5224L19.3487 76.365L19.753 76.5385ZM33.1305 75.9681C30.9371 75.9681 28.8141 75.6666 26.8007 75.1028L26.9038 74.8624L25.7402 74.3632L22.6354 73.0312L21.4718 72.532L21.3574 72.7988C14.3899 68.7401 9.70697 61.1892 9.70697 52.5446C9.70697 39.6081 20.194 29.1211 33.1305 29.1211C46.0669 29.1211 56.554 39.6081 56.554 52.5446C56.554 65.481 46.0669 75.9681 33.1305 75.9681Z" stroke="#AAA7A7" stroke-width="2.53227"/>
</mask>
<g mask="url(#mask0)">
<rect x="64.7844" y="-22.6956" width="68" height="175.124" transform="rotate(22.6639 64.7844 -22.6956)" fill="#AAA7A7"/>
</g>
</svg>
