<svg width="553" height="88" viewBox="0 0 553 88" fill="none" xmlns="http://www.w3.org/2000/svg">
<path d="M109.829 52.7681C109.829 55.8833 108.907 58.3719 107.062 60.2339C105.236 62.078 102.748 63 99.5967 63H87.2163C86.8582 63 86.6792 62.821 86.6792 62.4629V28.8936C86.6792 28.5355 86.8582 28.3564 87.2163 28.3564H99.5967C102.748 28.3564 105.236 29.2785 107.062 31.1226C108.907 32.9487 109.829 35.4373 109.829 38.5884V52.7681ZM103.571 53.2783V38.0781C103.571 37.0218 103.177 36.0998 102.39 35.312C101.602 34.5243 100.671 34.1304 99.5967 34.1304H93.5542C93.1961 34.1304 93.0171 34.3094 93.0171 34.6675V56.6621C93.0171 57.0381 93.1961 57.2261 93.5542 57.2261H99.5967C100.707 57.2261 101.647 56.8411 102.417 56.0713C103.186 55.3014 103.571 54.3704 103.571 53.2783ZM139.703 62.4629C139.703 62.821 139.515 63 139.139 63H119.722C119.364 63 119.185 62.821 119.185 62.4629V28.8936C119.185 28.5355 119.364 28.3564 119.722 28.3564H139.139C139.515 28.3564 139.703 28.5355 139.703 28.8936V33.5664C139.703 33.9424 139.515 34.1304 139.139 34.1304H126.06C125.702 34.1304 125.523 34.3094 125.523 34.6675V41.999C125.523 42.3571 125.702 42.5361 126.06 42.5361H136.775C137.151 42.5361 137.339 42.7241 137.339 43.1001V47.7729C137.339 48.131 137.151 48.3101 136.775 48.3101H126.06C125.702 48.3101 125.523 48.498 125.523 48.874V56.6621C125.523 57.0381 125.702 57.2261 126.06 57.2261H139.139C139.515 57.2261 139.703 57.4051 139.703 57.7632V62.4629ZM165.79 33.5664C165.79 33.9424 165.602 34.1304 165.226 34.1304H159.237C158.879 34.1304 158.7 34.3094 158.7 34.6675V62.4629C158.7 62.821 158.512 63 158.136 63H152.98C152.604 63 152.416 62.821 152.416 62.4629V34.6675C152.416 34.3094 152.237 34.1304 151.879 34.1304H145.863C145.505 34.1304 145.326 33.9424 145.326 33.5664V28.8936C145.326 28.5355 145.505 28.3564 145.863 28.3564H165.226C165.602 28.3564 165.79 28.5355 165.79 28.8936V33.5664ZM193.596 62.4629C193.596 62.821 193.408 63 193.032 63H173.616C173.258 63 173.079 62.821 173.079 62.4629V28.8936C173.079 28.5355 173.258 28.3564 173.616 28.3564H193.032C193.408 28.3564 193.596 28.5355 193.596 28.8936V33.5664C193.596 33.9424 193.408 34.1304 193.032 34.1304H179.954C179.596 34.1304 179.417 34.3094 179.417 34.6675V41.999C179.417 42.3571 179.596 42.5361 179.954 42.5361H190.669C191.045 42.5361 191.233 42.7241 191.233 43.1001V47.7729C191.233 48.131 191.045 48.3101 190.669 48.3101H179.954C179.596 48.3101 179.417 48.498 179.417 48.874V56.6621C179.417 57.0381 179.596 57.2261 179.954 57.2261H193.032C193.408 57.2261 193.596 57.4051 193.596 57.7632V62.4629ZM223.631 56.501C223.864 56.6084 223.98 56.7606 223.98 56.9575C223.98 57.8348 223.094 59.1865 221.322 61.0127C219.675 62.6956 217.311 63.5371 214.232 63.5371H211.546C208.467 63.5371 205.987 62.6509 204.107 60.8784C202.245 59.106 201.314 56.7516 201.314 53.8154V37.541C201.314 34.6048 202.245 32.2505 204.107 30.478C205.987 28.6877 208.467 27.7925 211.546 27.7925H214.232C216.738 27.7925 218.815 28.4012 220.462 29.6187C221.447 30.3527 222.306 31.2479 223.041 32.3042C223.667 33.2173 223.98 33.8797 223.98 34.2915C223.98 34.4705 223.864 34.6138 223.631 34.7212L218.851 37.0845C218.779 37.1203 218.69 37.1382 218.583 37.1382C218.403 37.1382 218.144 36.8338 217.804 36.2251C216.855 34.4526 215.664 33.5664 214.232 33.5664H211.546C210.436 33.5664 209.496 33.9513 208.727 34.7212C207.957 35.491 207.572 36.431 207.572 37.541V53.8154C207.572 54.9076 207.957 55.8385 208.727 56.6084C209.496 57.3783 210.436 57.7632 211.546 57.7632H214.232C215.664 57.7632 216.837 56.8859 217.75 55.1313C218.126 54.4331 218.403 54.084 218.583 54.084C218.69 54.084 218.779 54.1019 218.851 54.1377L223.631 56.501ZM249.074 33.5664C249.074 33.9424 248.886 34.1304 248.51 34.1304H242.521C242.163 34.1304 241.984 34.3094 241.984 34.6675V62.4629C241.984 62.821 241.796 63 241.42 63H236.264C235.888 63 235.7 62.821 235.7 62.4629V34.6675C235.7 34.3094 235.521 34.1304 235.163 34.1304H229.147C228.789 34.1304 228.61 33.9424 228.61 33.5664V28.8936C228.61 28.5355 228.789 28.3564 229.147 28.3564H248.51C248.886 28.3564 249.074 28.5355 249.074 28.8936V33.5664ZM262.701 62.4629C262.701 62.821 262.513 63 262.137 63H256.9C256.542 63 256.363 62.821 256.363 62.4629V28.8936C256.363 28.5355 256.542 28.3564 256.9 28.3564H262.137C262.513 28.3564 262.701 28.5355 262.701 28.8936V62.4629ZM294.267 29.0547L284.035 62.624C283.999 62.8747 283.82 63 283.498 63H279.523C279.236 63 279.057 62.8747 278.986 62.624L268.781 29.0547C268.781 29.0189 268.754 28.9831 268.7 28.9473C268.7 28.9115 268.7 28.8757 268.7 28.8398C268.7 28.5176 268.906 28.3564 269.318 28.3564H274.796C275.101 28.3564 275.289 28.4818 275.36 28.7324L281.618 51.0762L287.633 28.7324C287.705 28.4818 287.884 28.3564 288.17 28.3564H293.729C294.123 28.3564 294.32 28.5176 294.32 28.8398C294.32 28.8757 294.32 28.9115 294.32 28.9473C294.285 28.9831 294.267 29.0189 294.267 29.0547ZM320.837 62.4629C320.837 62.821 320.649 63 320.273 63H300.857C300.499 63 300.32 62.821 300.32 62.4629V28.8936C300.32 28.5355 300.499 28.3564 300.857 28.3564H320.273C320.649 28.3564 320.837 28.5355 320.837 28.8936V33.5664C320.837 33.9424 320.649 34.1304 320.273 34.1304H307.195C306.837 34.1304 306.658 34.3094 306.658 34.6675V41.999C306.658 42.3571 306.837 42.5361 307.195 42.5361H317.91C318.286 42.5361 318.474 42.7241 318.474 43.1001V47.7729C318.474 48.131 318.286 48.3101 317.91 48.3101H307.195C306.837 48.3101 306.658 48.498 306.658 48.874V56.6621C306.658 57.0381 306.837 57.2261 307.195 57.2261H320.273C320.649 57.2261 320.837 57.4051 320.837 57.7632V62.4629ZM335.646 59.8579C335.646 60.8605 335.278 61.7288 334.544 62.4629C333.828 63.179 332.969 63.5371 331.966 63.5371C330.946 63.5371 330.077 63.179 329.361 62.4629C328.645 61.7288 328.287 60.8605 328.287 59.8579C328.287 58.8374 328.645 57.9691 329.361 57.2529C330.077 56.5368 330.946 56.1787 331.966 56.1787C332.969 56.1787 333.828 56.5457 334.544 57.2798C335.278 58.0138 335.646 58.8732 335.646 59.8579ZM372.368 62.4629C372.368 62.821 372.189 63 371.831 63H366.755C366.397 63 366.218 62.821 366.218 62.4629L366.701 41.0054L360.498 57.9512C360.265 58.166 360.095 58.2734 359.987 58.2734H357.194C356.979 58.2734 356.809 58.166 356.684 57.9512L350.48 41.0054L350.964 62.4629C350.964 62.821 350.785 63 350.427 63H345.297C344.939 63 344.76 62.821 344.76 62.4629V28.8936C344.76 28.5355 344.939 28.3564 345.297 28.3564H350.051C350.23 28.3923 350.391 28.4997 350.534 28.6787L358.564 50.4585L366.594 28.6787C366.773 28.4997 366.934 28.3923 367.077 28.3564H371.831C372.189 28.3564 372.368 28.5355 372.368 28.8936V62.4629ZM404.9 53.8154C404.9 56.7516 403.96 59.106 402.081 60.8784C400.219 62.6509 397.748 63.5371 394.668 63.5371H391.983C388.903 63.5371 386.424 62.6509 384.544 60.8784C382.682 59.106 381.751 56.7516 381.751 53.8154V37.541C381.751 34.6048 382.682 32.2505 384.544 30.478C386.424 28.6877 388.903 27.7925 391.983 27.7925H394.668C397.748 27.7925 400.219 28.6877 402.081 30.478C403.96 32.2505 404.9 34.6048 404.9 37.541V53.8154ZM398.589 53.8154V37.541C398.589 36.3952 398.213 35.4463 397.461 34.6943C396.709 33.9424 395.778 33.5664 394.668 33.5664H391.983C390.873 33.5664 389.933 33.9513 389.163 34.7212C388.393 35.491 388.008 36.431 388.008 37.541V53.8154C388.008 54.9076 388.393 55.8385 389.163 56.6084C389.933 57.3783 390.873 57.7632 391.983 57.7632H394.668C395.778 57.7632 396.709 57.3872 397.461 56.6353C398.213 55.8833 398.589 54.9434 398.589 53.8154ZM422.689 33.5664C421.579 33.5664 420.639 33.9513 419.87 34.7212C419.1 35.491 418.715 36.431 418.715 37.541C418.715 38.6689 419.306 39.6178 420.487 40.3877C420.881 40.6921 422.421 41.444 425.106 42.6436C428.15 44.04 430.325 45.5618 431.632 47.209C433.029 48.9814 433.727 51.1836 433.727 53.8154C433.727 56.7516 432.787 59.106 430.907 60.8784C429.045 62.6509 426.575 63.5371 423.495 63.5371H421.293C418.214 63.5371 415.832 62.6777 414.149 60.959C412.466 59.2402 411.625 57.9064 411.625 56.9575C411.625 56.8143 411.732 56.68 411.947 56.5547L416.728 54.1914C416.817 54.1556 416.916 54.1377 417.023 54.1377C417.166 54.1377 417.515 54.6927 418.07 55.8027C418.715 57.1097 419.789 57.7632 421.293 57.7632H423.495C424.569 57.7632 425.5 57.3783 426.288 56.6084C427.076 55.8385 427.47 54.9076 427.47 53.8154C427.47 52.5622 426.933 51.5148 425.858 50.6733C425.25 50.2078 423.826 49.438 421.588 48.3638C418.312 46.7882 416.038 45.3022 414.767 43.9058C413.227 42.2228 412.458 40.1012 412.458 37.541C412.458 34.6048 413.389 32.2505 415.25 30.478C417.13 28.6877 419.61 27.7925 422.689 27.7925H423.495C426.002 27.7925 428.096 28.4012 429.779 29.6187C430.728 30.3169 431.588 31.2121 432.357 32.3042C432.984 33.2173 433.297 33.8797 433.297 34.2915C433.297 34.4705 433.19 34.6138 432.975 34.7212L428.168 37.0845C428.096 37.1203 428.007 37.1382 427.899 37.1382C427.756 37.1382 427.523 36.8696 427.201 36.3325C426.091 34.4884 424.856 33.5664 423.495 33.5664H422.689ZM462.795 56.501C463.028 56.6084 463.145 56.7606 463.145 56.9575C463.145 57.8348 462.258 59.1865 460.486 61.0127C458.839 62.6956 456.475 63.5371 453.396 63.5371H450.71C447.631 63.5371 445.151 62.6509 443.271 60.8784C441.41 59.106 440.479 56.7516 440.479 53.8154V37.541C440.479 34.6048 441.41 32.2505 443.271 30.478C445.151 28.6877 447.631 27.7925 450.71 27.7925H453.396C455.903 27.7925 457.979 28.4012 459.626 29.6187C460.611 30.3527 461.471 31.2479 462.205 32.3042C462.831 33.2173 463.145 33.8797 463.145 34.2915C463.145 34.4705 463.028 34.6138 462.795 34.7212L458.015 37.0845C457.944 37.1203 457.854 37.1382 457.747 37.1382C457.568 37.1382 457.308 36.8338 456.968 36.2251C456.019 34.4526 454.828 33.5664 453.396 33.5664H450.71C449.6 33.5664 448.66 33.9513 447.891 34.7212C447.121 35.491 446.736 36.431 446.736 37.541V53.8154C446.736 54.9076 447.121 55.8385 447.891 56.6084C448.66 57.3783 449.6 57.7632 450.71 57.7632H453.396C454.828 57.7632 456.001 56.8859 456.914 55.1313C457.29 54.4331 457.568 54.084 457.747 54.084C457.854 54.084 457.944 54.1019 458.015 54.1377L462.795 56.501ZM493.019 53.8154C493.019 56.7516 492.079 59.106 490.199 60.8784C488.337 62.6509 485.866 63.5371 482.787 63.5371H480.101C477.022 63.5371 474.542 62.6509 472.662 60.8784C470.8 59.106 469.869 56.7516 469.869 53.8154V37.541C469.869 34.6048 470.8 32.2505 472.662 30.478C474.542 28.6877 477.022 27.7925 480.101 27.7925H482.787C485.866 27.7925 488.337 28.6877 490.199 30.478C492.079 32.2505 493.019 34.6048 493.019 37.541V53.8154ZM486.708 53.8154V37.541C486.708 36.3952 486.332 35.4463 485.58 34.6943C484.828 33.9424 483.897 33.5664 482.787 33.5664H480.101C478.991 33.5664 478.051 33.9513 477.281 34.7212C476.511 35.491 476.126 36.431 476.126 37.541V53.8154C476.126 54.9076 476.511 55.8385 477.281 56.6084C478.051 57.3783 478.991 57.7632 480.101 57.7632H482.787C483.897 57.7632 484.828 57.3872 485.58 56.6353C486.332 55.8833 486.708 54.9434 486.708 53.8154ZM534.682 29.001L527.431 62.5703C527.36 62.8568 527.172 63 526.867 63H522.866C522.579 63 522.391 62.8747 522.302 62.624L516.77 40.8442L511.264 62.624C511.193 62.8747 511.005 63 510.7 63H506.699C506.394 63 506.206 62.8568 506.135 62.5703L498.884 29.001C498.884 28.9652 498.884 28.9294 498.884 28.8936C498.848 28.8577 498.83 28.8219 498.83 28.7861C498.83 28.4997 499.036 28.3564 499.448 28.3564H505.034C505.374 28.3564 505.562 28.4997 505.598 28.7861L509.599 51.1836L514.836 28.625C514.908 28.3743 515.087 28.249 515.373 28.249H518.139C518.426 28.249 518.605 28.3743 518.676 28.625L523.913 51.1836L527.968 28.7861C528.004 28.4997 528.192 28.3564 528.532 28.3564H534.145C534.539 28.3564 534.736 28.4997 534.736 28.7861C534.736 28.8219 534.736 28.8577 534.736 28.8936C534.7 28.9294 534.682 28.9652 534.682 29.001Z" fill="url(#paint0_linear)"/>
<path fill-rule="evenodd" clip-rule="evenodd" d="M16.6993 51.5839C15.5733 51.947 14.3659 51.3285 14.0028 50.2025C11.1736 41.3939 11.8711 32.2963 15.3127 24.4377C17.1607 23.2657 19.2322 22.4146 21.449 21.9628C16.5911 29.7223 15.0614 39.4915 18.0806 48.8877C18.4436 50.0135 17.8253 51.2208 16.6993 51.5839ZM26.865 21.6726C19.4941 30.9214 18.5945 44.2348 25.5451 54.57C26.4008 55.8434 27.0638 57.0438 27.5646 58.1728C29.0247 57.9801 30.4308 57.6158 31.7619 57.101C31.1265 55.5231 30.2539 53.8781 29.1077 52.1741L29.1052 52.1703C22.8199 42.8186 24.1285 30.5885 31.6028 22.7625C30.1066 22.1998 28.5176 21.8268 26.865 21.6726ZM35.6309 24.8827C28.9264 31.2541 27.4904 41.6338 32.5899 49.669C33.7285 51.6203 34.7186 53.4199 35.5684 55.0849C36.7841 54.2448 37.8935 53.2619 38.8725 52.1604C38.1001 50.6851 37.2405 49.139 36.2937 47.5156C32.1464 41.1146 33.3345 32.7447 38.8434 27.7312C37.8884 26.6618 36.8102 25.7049 35.6309 24.8827ZM41.5345 31.6722C37.9634 35.0739 37.1138 40.6159 39.786 44.9985C40.4048 45.9187 41.0825 46.8108 41.8136 47.6762C42.5418 46.1047 43.0544 44.4129 43.3134 42.6387C43.3088 42.6319 43.3042 42.6251 43.2996 42.6183C41.8931 40.5262 41.88 37.9056 43.0456 35.8528C42.7101 34.3845 42.1986 32.9831 41.5345 31.6722ZM21.2109 57.9112C21.0367 57.6264 20.8699 57.3368 20.7107 57.0428C20.3476 55.9168 19.1403 55.2983 18.0142 55.6614C17.5758 55.8028 17.2144 56.0721 16.9578 56.4147C18.2915 57.079 19.7172 57.586 21.2109 57.9112Z" fill="#EAE2E2"/>
<path fill-rule="evenodd" clip-rule="evenodd" d="M42.284 4.96412C42.141 5.01049 41.9914 5.03286 41.8411 5.03006C41.3545 5.02022 40.8775 5.00118 40.4075 4.98243L40.4075 4.98243L40.4074 4.98243L40.4074 4.98242L40.1563 4.97246C35.7658 4.70538 31.3692 5.3831 27.263 6.96018C21.0713 8.95692 19.9061 10.1216 18.2976 11.7312C17.902 12.1294 17.4813 12.547 16.9813 13.0101C16.4218 13.5091 15.5637 13.4601 15.0647 12.9005C14.5657 12.341 14.6148 11.4829 15.1744 10.9839C15.6273 10.5744 16.0044 10.1975 16.362 9.84027L16.3912 9.81112C18.185 8.00796 19.6126 6.57913 26.4311 4.38022C30.8439 2.70452 35.5618 1.98289 40.2738 2.26296L40.4186 2.26911C40.9019 2.28969 41.3874 2.31036 41.8901 2.31141C42.6385 2.31034 43.2462 2.91634 43.2473 3.66483C43.248 4.263 42.8566 4.79107 42.284 4.96412ZM49.4669 13.3539C49.8253 13.6646 50.3201 13.7653 50.7716 13.6195C51.0065 13.5434 51.216 13.4046 51.3779 13.2179C51.8683 12.6525 51.8074 11.7964 51.2418 11.3061C48.5312 8.959 38.9613 6.03565 28.095 9.53993C16.5399 13.2664 12.2917 21.2982 11.6301 24.0777C11.6214 24.1094 11.6137 24.1414 11.6073 24.1736C11.4601 24.9076 11.936 25.6218 12.6699 25.7688C13.4038 25.9159 14.118 25.4401 14.265 24.7062C14.7916 22.4971 18.6076 15.4477 28.9269 12.1198C38.8438 8.92167 47.5221 11.6683 49.4669 13.3539ZM19.6767 22.4177C22.4354 18.7204 26.3268 15.8126 31.0487 14.2837C42.9521 10.445 49.4286 15.9467 54.1564 19.9645L54.1709 19.9768C56.3956 21.864 58.3175 23.4942 60.095 23.4979C60.8435 23.4915 61.4555 24.093 61.4621 24.8415C61.4686 25.59 60.8669 26.202 60.1185 26.2085C60.1086 26.2086 60.0989 26.2086 60.0891 26.2084C57.3147 26.2036 55.0398 24.2706 52.4051 22.0321L52.4012 22.0288L52.3994 22.0273C47.9202 18.2231 42.3458 13.4888 31.8807 16.8637C28.8053 17.8591 26.1292 19.5174 23.9595 21.6295C22.4773 21.7233 21.0428 21.9929 19.6767 22.4177ZM22.236 58.1039C22.2162 58.2879 22.234 58.4778 22.293 58.662C22.5215 59.3749 23.2845 59.7675 23.9973 59.5391C24.1306 59.497 24.2564 59.4343 24.3704 59.3533C24.7974 59.0518 25.2091 58.7087 25.5948 58.3261C25.4428 58.3299 25.2903 58.3317 25.1374 58.3317C24.1502 58.3317 23.1811 58.2538 22.236 58.1039ZM31.6633 22.7853C30.4852 22.3375 29.2491 22.0074 27.9694 21.8093C28.0727 21.7367 28.177 21.6649 28.2823 21.5941L28.2942 21.5861C36.2136 16.3319 46.8674 18.2585 52.4452 25.9536C53.2822 26.3501 58.8591 28.5675 62.661 30.0414C63.3503 30.3331 63.6726 31.1285 63.3809 31.8179C63.1016 32.4777 62.357 32.8061 61.6814 32.5676C51.2325 28.5177 50.7913 28.1348 50.5851 27.9558L50.5842 27.955C50.5021 27.883 50.4289 27.8013 50.3663 27.7119C46.1107 21.653 38.1633 19.6882 31.6633 22.7853ZM31.9517 57.0263C31.3252 58.4549 30.1325 59.5942 28.5161 60.7362C28.0338 61.078 27.8285 61.6929 28.009 62.2558C28.2374 62.9686 29.0005 63.3612 29.7133 63.1328C29.8393 63.0927 29.9586 63.0341 30.0673 62.9588C33.2035 60.7475 34.8896 58.3957 35.1324 55.3771C34.1348 56.0253 33.0704 56.5792 31.9517 57.0263ZM37.876 26.7267C36.9855 25.8694 36.0086 25.1011 34.9598 24.4362C39.8545 23.1315 45.2455 24.9768 48.2408 29.4055C49.0012 30.5359 51.414 32.4094 63.4322 36.9016C64.1413 37.1416 64.5214 37.911 64.2813 38.6199C64.0412 39.329 63.2718 39.7091 62.5629 39.469C62.5367 39.4601 62.5106 39.4504 62.4849 39.44C49.2103 34.4872 47.0608 32.5117 45.992 30.9196C44.1117 28.1289 41.0088 26.6531 37.876 26.7267ZM37.0861 53.915C37.8434 53.266 38.5472 52.5563 39.19 51.7936C40.9925 56.2245 40.7649 63.657 36.9176 66.4489C36.8008 66.5282 36.6725 66.5888 36.5369 66.6285C35.825 66.8596 35.0605 66.4699 34.8294 65.7579C34.6473 65.197 34.8488 64.5828 35.3277 64.2388C37.6528 62.5565 38.1091 57.4777 37.0861 53.915ZM41.6284 48.0642C42.0272 47.2539 42.3681 46.4099 42.6457 45.5377C47.4697 48.5013 53.3821 50.8574 58.942 52.935C59.6432 53.1971 59.9991 53.978 59.7369 54.6791C59.5917 55.0675 59.2766 55.3681 58.8817 55.4949L58.9032 55.4909C58.6127 55.5843 58.2993 55.577 58.0136 55.4702C52.4681 53.3973 46.5818 51.0486 41.6284 48.0642ZM43.0181 35.7338C42.5411 33.7089 41.729 31.8133 40.6436 30.1087C41.842 30.5516 42.9262 31.3367 43.7374 32.4329C46.6337 36.7389 58.2293 41.0877 62.6727 42.7541L62.7386 42.7788C63.4477 43.0189 63.8278 43.7883 63.5877 44.4972C63.3476 45.2061 62.5782 45.5864 61.8693 45.3463C61.8431 45.3374 61.817 45.3277 61.7913 45.3172C54.5688 42.6195 46.9005 39.422 43.0181 35.7338ZM43.2901 42.7945C43.4329 41.8713 43.5071 40.9253 43.5071 39.9621C43.5071 39.8633 43.5063 39.7648 43.5048 39.6664C47.8733 42.8107 53.6719 44.8458 57.5811 46.2163C58.8569 46.6267 60.1085 47.1082 61.3302 47.6588C61.9959 48.0011 62.258 48.8183 61.9156 49.484C61.7522 49.8022 61.4695 50.0428 61.1293 50.1533C60.7872 50.2643 60.4149 50.2348 60.0946 50.0711C58.9809 49.5821 57.8433 49.1495 56.6861 48.7751L56.6792 48.7727C52.9987 47.4825 47.7343 45.6372 43.2901 42.7945ZM45.0258 66.739L45.1084 66.7124C45.7911 66.4937 46.1855 65.7811 46.0081 65.0867C45.3129 62.3744 45.0839 58.176 46.4822 57.7251C48.3912 57.1094 50.3366 58.5043 51.9125 59.6342L51.9257 59.6437C52.4498 60.0405 53.0007 60.4006 53.5747 60.7211C54.2304 61.0427 55.0228 60.7871 55.367 60.1431C55.7198 59.4828 55.4707 58.6616 54.8105 58.3088C54.3583 58.0488 53.9242 57.7588 53.5109 57.4406C51.4221 55.4395 48.4882 54.5837 45.6511 55.1476C41.2653 56.562 42.9887 64.2374 43.3775 65.761C43.5626 66.4862 44.3006 66.924 45.0258 66.739ZM56.9096 19.1933C57.2526 19.6728 57.866 19.8756 58.4271 19.6951C58.5599 19.6522 58.6853 19.589 58.7987 19.5078C59.4075 19.0725 59.5481 18.2259 59.1126 17.6171C57.7703 15.9579 56.2757 14.4279 54.6483 13.0472C54.0793 12.5605 53.2235 12.6274 52.737 13.1965C52.2503 13.7655 52.3172 14.6212 52.8862 15.1078C54.3464 16.3471 55.6928 17.7145 56.9096 19.1933Z" fill="#EAE2E2"/>
<path d="M5.86964 81.3759L14.7209 60.7443L15.3636 61.02L6.51233 81.6517L5.86964 81.3759ZM8.28929 82.4142L17.1406 61.7824L17.741 62.0399L8.88964 82.6718L8.28929 82.4142ZM4.20898 83.0109L5.66181 83.6342L6.55032 84.0154L8.9277 85.0353L8.9477 85.0439L8.90867 85.1348L4.17013 83.1014L4.20898 83.0109ZM19.5134 60.3456L19.4618 60.4657L19.1798 60.3447L19.2313 60.2245L19.5134 60.3456ZM15.0834 58.445L15.0319 58.5652L14.7231 58.4328L14.7747 58.3126L15.0834 58.445ZM25.2985 58.0095C23.6236 58.0095 22.0025 57.7793 20.4651 57.3488L20.5438 57.1652L19.6553 56.784L17.2844 55.7669L16.3959 55.3857L16.3085 55.5894C10.9882 52.4902 7.41224 46.7243 7.41224 40.1232C7.41224 30.2449 15.4202 22.237 25.2985 22.237C35.1768 22.237 43.1848 30.2449 43.1848 40.1232C43.1848 50.0015 35.1768 58.0095 25.2985 58.0095Z" stroke="#EAE2E2" stroke-width="1.93365"/>
<mask id="mask0" mask-type="alpha" maskUnits="userSpaceOnUse" x="2" y="21" width="43" height="66">
<path d="M5.86964 81.3759L14.7209 60.7443L15.3636 61.02L6.51233 81.6517L5.86964 81.3759ZM8.28929 82.4142L17.1406 61.7824L17.741 62.0399L8.88964 82.6718L8.28929 82.4142ZM4.20898 83.0109L5.66181 83.6342L6.55032 84.0154L8.9277 85.0353L8.9477 85.0439L8.90867 85.1348L4.17013 83.1014L4.20898 83.0109ZM19.5134 60.3456L19.4618 60.4657L19.1798 60.3447L19.2313 60.2245L19.5134 60.3456ZM15.0834 58.445L15.0319 58.5652L14.7231 58.4328L14.7747 58.3126L15.0834 58.445ZM25.2985 58.0095C23.6236 58.0095 22.0025 57.7793 20.4651 57.3488L20.5438 57.1652L19.6553 56.784L17.2844 55.7669L16.3959 55.3857L16.3085 55.5894C10.9882 52.4902 7.41224 46.7243 7.41224 40.1232C7.41224 30.2449 15.4202 22.237 25.2985 22.237C35.1768 22.237 43.1848 30.2449 43.1848 40.1232C43.1848 50.0015 35.1768 58.0095 25.2985 58.0095Z" stroke="#AAA7A7" stroke-width="1.93365"/>
</mask>
<g mask="url(#mask0)">
<rect x="49.4695" y="-17.3304" width="51.925" height="133.726" transform="rotate(22.6639 49.4695 -17.3304)" fill="#AAA7A7"/>
</g>
<defs>
<linearGradient id="paint0_linear" x1="318" y1="18" x2="318" y2="69" gradientUnits="userSpaceOnUse">
<stop stop-color="#CED7D8"/>
<stop offset="0.0001" stop-color="#EAE2E2"/>
<stop offset="1" stop-color="#938B8B"/>
</linearGradient>
</defs>
</svg>
